HIERARCHY
ROOT Hips
{
	OFFSET -3.958830 18.904000 13.208200
	CHANNELS 6 Xposition Yposition Zposition Zrotation Yrotation Xrotation 
	JOINT LHipJoint
	{
		OFFSET 0.000000 0.000000 0.000000
		CHANNELS 3 Zrotation Yrotation Xrotation
		JOINT LeftUpLeg
		{
			OFFSET 1.800000 -1.400000 0.085000
			CHANNELS 3 Zrotation Yrotation Xrotation
			JOINT LeftLeg
			{
				OFFSET 2.215000 -6.000000 0.000000
				CHANNELS 3 Zrotation Yrotation Xrotation
				JOINT LeftFoot
				{
					OFFSET 2.500000 -6.900000 0.000000
					CHANNELS 3 Zrotation Yrotation Xrotation
					JOINT LeftToeBase
					{
						OFFSET 0.200000 -0.500000 1.950000
						CHANNELS 3 Zrotation Yrotation Xrotation
						End Site
						{
							OFFSET 0.000000 0.000000 0.000000
						}
					}
				}
			}
		}
	}
	JOINT RHipJoint
	{
		OFFSET 0.000000 0.000000 0.000000
		CHANNELS 3 Zrotation Yrotation Xrotation
		JOINT RightUpLeg
		{
			OFFSET -1.800000 -1.400000 0.085000
			CHANNELS 3 Zrotation Yrotation Xrotation
			JOINT RightLeg
			{
				OFFSET -2.215000 -6.000000 0.000000
				CHANNELS 3 Zrotation Yrotation Xrotation
				JOINT RightFoot
				{
					OFFSET -2.500000 -6.900000 0.000000
					CHANNELS 3 Zrotation Yrotation Xrotation
					JOINT RightToeBase
					{
						OFFSET -0.200000 -0.500000 1.950000
						CHANNELS 3 Zrotation Yrotation Xrotation
						End Site
						{
							OFFSET 0.000000 0.000000 0.000000
						}
					}
				}
			}
		}
	}
	JOINT LowerBack
	{
		OFFSET 0.000000 0.000000 0.000000
		CHANNELS 3 Zrotation Yrotation Xrotation
		JOINT Spine
		{
			OFFSET -0.087000 1.940000 -0.288900
			CHANNELS 3 Zrotation Yrotation Xrotation
			JOINT Spine1
			{
				OFFSET 0.000000 1.950000 0.060000
				CHANNELS 3 Zrotation Yrotation Xrotation
				JOINT Neck
				{
					OFFSET 0.000000 0.000000 0.000000
					CHANNELS 3 Zrotation Yrotation Xrotation
					JOINT Neck1
					{
						OFFSET 0.000000 1.600000 0.340000
						CHANNELS 3 Zrotation Yrotation Xrotation
						JOINT Head
						{
							OFFSET 0.000000 1.667000 -0.240000
							CHANNELS 3 Zrotation Yrotation Xrotation
							End Site
							{
								OFFSET 0.000000 0.000000 0.000000
							}
						}
					}
				}
				JOINT LeftShoulder
				{
					OFFSET 0.000000 0.000000 0.000000
					CHANNELS 3 Zrotation Yrotation Xrotation
					JOINT LeftArm
					{
						OFFSET 2.700000 1.550000 -0.730000
						CHANNELS 3 Zrotation Yrotation Xrotation
						JOINT LeftForeArm
						{
							OFFSET 5.450000 0.000000 0.000000
							CHANNELS 3 Zrotation Yrotation Xrotation
							JOINT LeftHand
							{
								OFFSET 3.450000 0.000000 0.000000
								CHANNELS 3 Zrotation Yrotation Xrotation
								JOINT LeftHandIndex1
								{
									OFFSET 0.750000 0.000000 0.000000
									CHANNELS 3 Zrotation Yrotation Xrotation
									End Site
									{
										OFFSET 0.000000 0.000000 0.000000
									}
								}
							}
						}
					}
				}
				JOINT RightShoulder
				{
					OFFSET 0.000000 0.000000 0.000000
					CHANNELS 3 Zrotation Yrotation Xrotation
					JOINT RightArm
					{
						OFFSET -2.700000 1.550000 -0.730000
						CHANNELS 3 Zrotation Yrotation Xrotation
						JOINT RightForeArm
						{
							OFFSET -5.450000 0.000000 0.000000
							CHANNELS 3 Zrotation Yrotation Xrotation
							JOINT RightHand
							{
								OFFSET -3.450000 0.000000 0.000000
								CHANNELS 3 Zrotation Yrotation Xrotation
								JOINT RightHandIndex1
								{
									OFFSET -0.750000 0.000000 0.000000
									CHANNELS 3 Zrotation Yrotation Xrotation
									End Site
									{
										OFFSET 0.000000 0.000000 0.000000
									}
								}
							}
						}
					}
				}
			}
		}
	}
}
MOTION
Frames: 12
Frame Time: 0.016667
0.714960 17.659240 0.352980 -7.329649 12.895263 -6.869354 -15.055158 13.075003 2.077627 3.082673 -0.370346 -5.471214 -2.727433 6.312942 20.498416 -0.035812 4.335392 2.947849 0.321450 0.246760 0.368290 18.553991 -9.363730 4.933391 -2.696585 13.382675 -38.082781 -4.141687 -22.469364 102.188082 -3.285940 -15.965988 -0.559701 0.129090 -0.228310 0.046320 -4.321398 -2.481877 -8.724551 17.152494 -7.219458 21.457710 -6.477392 -4.647887 0.045909 3.629029 0.795088 -7.976134 -1.574229 0.531190 51.006660 -2.146370 1.752510 -6.824280 -30.210797 -7.170008 2.450477 -35.987104 4.943989 -7.375075 -41.861971 -21.109246 4.444217 -3.402745 3.228548 0.348930 -0.142730 0.226280 -0.017570 22.922501 5.298070 3.522787 44.598908 -1.731926 -8.866585 30.607980 23.126943 3.126596 2.501008 -1.342297 -0.007980 0.050250 -0.107400 -0.173840 
0.712420 17.667850 0.357290 -7.262665 12.665878 -6.889938 -15.059933 13.101253 2.100406 2.931578 -0.318818 -5.258284 -2.645975 6.251644 20.243326 -0.043770 4.316743 2.956239 0.320180 0.242990 0.368630 18.550741 -9.383576 4.910644 -2.292711 13.320586 -38.495980 -4.018012 -20.706255 99.154737 -3.131921 -15.432265 -0.451975 0.129620 -0.226730 0.043880 -4.306257 -2.491671 -8.707793 16.908366 -7.388982 21.624274 -6.466014 -4.783375 0.112878 3.591865 0.687852 -7.975830 -1.742219 0.728314 50.795625 -1.981180 1.826680 -7.027640 -29.919500 -7.115559 2.499477 -36.067653 5.051234 -7.400365 -41.891182 -20.993173 4.378407 -3.404258 3.222859 0.354490 -0.144860 0.224880 -0.019700 22.722685 5.300661 3.460647 44.603057 -1.538033 -8.871701 31.059023 23.300368 3.239193 2.501273 -1.342462 -0.013420 0.054290 -0.104260 -0.176710 
0.706680 17.688800 0.363130 -7.038527 12.134986 -7.000514 -15.067949 13.157452 2.164237 2.645323 -0.190382 -4.712827 -2.642096 6.142202 19.445279 -0.053732 4.273162 2.980327 0.315480 0.233090 0.366060 18.540453 -9.440987 4.844681 -1.368567 13.070562 -39.013607 -4.078486 -16.880094 92.257963 -2.772841 -14.164083 -0.175878 0.128220 -0.218100 0.038670 -4.273144 -2.501283 -8.670785 16.331623 -7.645713 21.909999 -6.384767 -5.002409 0.284681 3.489062 0.517108 -8.003727 -2.069596 0.974845 50.815851 -1.653230 1.781630 -7.082220 -29.454523 -7.130141 2.613974 -36.204442 5.127776 -7.400103 -41.727667 -20.653053 4.197725 -3.408767 3.207872 0.361000 -0.146150 0.220090 -0.020010 22.513393 5.416628 3.359379 44.643118 -1.172433 -8.907342 31.710469 23.602721 3.412782 2.502451 -1.340756 -0.023400 0.064890 -0.099070 -0.178130 
0.701290 17.705590 0.380630 -6.401673 10.883070 -6.901723 -15.068628 13.269183 2.311450 1.623893 -0.014126 -4.093316 -2.341493 5.929561 18.771742 -0.047731 4.193009 3.010478 0.315670 0.234310 0.366360 18.510928 -9.639700 4.630742 -0.224015 12.120168 -38.175019 -4.539684 -11.633787 80.549106 -2.177873 -11.967163 0.351431 0.125000 -0.222110 0.039850 -4.222741 -2.453320 -8.560919 15.270616 -7.631308 21.783530 -6.307675 -5.093269 0.791815 3.377618 0.198770 -8.112465 -2.656290 1.584403 51.007766 -1.739780 2.248420 -6.891650 -28.570633 -6.978262 2.859584 -36.822126 5.505524 -7.624370 -41.574737 -20.623739 4.083627 -3.409778 3.209075 0.358360 -0.148440 0.222590 -0.019600 21.912106 5.559410 3.231603 45.046019 -0.525283 -8.978032 32.972863 24.064232 3.710598 2.514668 -1.358897 -0.018440 0.057070 -0.102180 -0.176620 
0.678860 17.706260 0.418030 -4.990611 9.192666 -6.328844 -15.085177 13.455161 2.557786 -0.080926 0.075476 -3.980291 -2.045705 5.784554 18.899550 -0.029411 4.162589 3.025452 0.299180 0.220530 0.346580 18.425295 -10.011840 4.206109 0.901854 10.062142 -35.546441 -5.821988 -6.695741 65.766602 -1.453965 -9.167206 1.125713 0.115320 -0.202310 0.044000 -4.071255 -2.393019 -8.363726 12.717748 -7.054374 21.015646 -5.791357 -5.020365 1.404568 3.094487 0.004815 -7.967629 -2.919762 2.296037 50.500611 -1.678950 3.001490 -6.216460 -27.390962 -5.947440 2.945443 -37.396807 6.337598 -8.034034 -42.187462 -21.583447 4.449657 -3.430129 3.226238 0.339360 -0.131200 0.208550 -0.014570 21.474521 4.818439 2.789897 45.932895 -0.182904 -9.237386 34.737836 25.041939 4.214909 2.520576 -1.391155 -0.018010 0.049080 -0.097580 -0.168540 
0.652920 17.677960 0.474870 -3.481782 7.280922 -5.335133 -15.113241 13.647826 2.827477 -1.764924 0.110251 -4.287322 -2.050001 5.665371 18.652908 -0.023543 4.105783 3.057407 0.267670 0.189970 0.321790 18.319207 -10.433686 3.668707 1.490081 7.282230 -32.372480 -6.372694 -3.737097 49.044594 -0.734222 -6.119464 2.088700 0.101860 -0.167390 0.042650 -3.865395 -2.332046 -8.076718 9.920136 -6.276961 19.256382 -5.145842 -4.844326 2.336180 2.827371 -0.129197 -7.608249 -2.928530 3.148362 48.610284 -1.751160 4.205300 -5.645060 -25.175317 -3.796236 2.748691 -38.717883 7.220754 -8.614656 -44.063358 -23.192760 5.284965 -3.474450 3.241125 0.313540 -0.100850 0.180470 -0.011650 19.986068 2.900230 2.222494 47.508388 -0.402815 -9.733820 37.975554 26.843907 5.230669 2.516894 -1.441793 -0.031230 0.048560 -0.087200 -0.164450 
0.618220 17.625260 0.538150 -1.884678 4.761048 -3.925586 -15.162197 13.742645 3.040127 -3.213221 0.178504 -4.623497 -2.716875 5.723771 18.011570 -0.002747 4.077787 3.089536 0.223170 0.142810 0.283500 18.226228 -10.740706 3.194172 1.486592 4.599341 -29.156267 -5.143201 -2.605421 32.299789 -0.185516 -3.444177 3.034377 0.077770 -0.115540 0.046120 -3.618006 -2.253675 -7.772425 6.900064 -5.254405 16.583890 -4.670717 -4.389669 3.559067 2.568338 -0.169004 -7.285385 -2.762957 3.818740 46.160192 -1.750230 5.201700 -4.704270 -22.100858 -1.033686 2.484817 -40.294394 8.211670 -9.166838 -46.877979 -24.991164 6.506009 -3.524781 3.266705 0.278110 -0.059180 0.141350 -0.005480 17.592405 0.357941 1.865601 50.197228 -1.452526 -10.475241 42.821352 29.100773 6.810672 2.501251 -1.519997 -0.045340 0.046480 -0.071350 -0.153860 
0.596150 17.597680 0.550570 -1.078377 2.009692 -3.124635 -15.194073 13.718030 3.122588 -3.853257 0.118800 -5.147731 -3.871965 6.015985 17.929568 0.019476 4.109960 3.073103 0.207880 0.128190 0.276650 18.188333 -10.785695 3.048970 0.971542 3.364242 -27.251298 -2.319231 -2.698114 22.289994 0.009199 -2.277905 3.470854 0.063100 -0.118360 0.046190 -3.460109 -2.222828 -7.675921 5.313843 -4.329202 15.555887 -4.468183 -3.659943 4.180672 2.557023 -0.166131 -7.325116 -2.665166 4.415517 45.351654 -1.733170 6.130920 -4.785080 -19.869209 0.925584 2.275105 -41.173606 9.067558 -9.654394 -49.589860 -27.137411 8.008508 -3.522940 3.291752 0.281290 -0.058240 0.142340 -0.011590 15.428376 -1.405979 2.042615 52.070668 -3.233875 -11.529606 47.304899 32.005065 8.772476 2.477181 -1.579967 -0.046530 0.035810 -0.067080 -0.158510 
0.590570 17.595230 0.543410 -0.869485 -0.362873 -2.964989 -15.187073 13.675404 3.143863 -4.102309 0.002640 -5.590849 -4.457423 6.271582 18.624879 0.039655 4.179508 3.042175 0.209100 0.127260 0.289120 18.192767 -10.778364 3.063518 0.861823 3.098938 -26.620565 -0.870210 -2.786216 18.832409 0.039363 -1.981026 3.584352 0.054380 -0.135660 0.042620 -3.427919 -2.160999 -7.692867 4.987882 -3.650430 15.917367 -4.636755 -2.963374 4.074056 2.626596 -0.152287 -7.279485 -2.650710 4.537537 45.066517 -1.686390 6.426870 -5.469550 -19.096559 2.418940 1.867114 -41.155395 9.807058 -9.991025 -51.703662 -28.694742 9.252290 -3.498571 3.300832 0.301370 -0.075420 0.159450 -0.016200 14.464198 -2.819048 2.282309 53.434859 -5.510691 -12.888128 50.445532 35.087486 10.652980 2.457645 -1.609341 -0.046150 0.036020 -0.072300 -0.165450 
0.580730 17.615340 0.537680 -1.134318 -1.733877 -3.033991 -15.190346 13.683989 3.132397 -4.009052 -0.086722 -5.904273 -4.270685 6.290445 19.180392 0.031329 4.197687 3.028244 0.211290 0.125810 0.305740 18.185166 -10.750521 3.125332 1.453722 3.209668 -26.424287 -0.373401 -2.805712 17.961233 0.037967 -1.899510 3.613395 0.051480 -0.151260 0.042000 -3.382124 -2.180351 -7.735503 4.851745 -3.184085 16.813116 -4.445530 -2.471768 3.396985 2.767976 0.241886 -6.911019 -1.911571 4.300125 44.938188 -1.729830 6.673870 -6.188090 -19.449283 3.805616 1.192502 -40.653721 10.235106 -10.114489 -52.368096 -29.701238 10.005882 -3.487825 3.299969 0.320980 -0.085980 0.173170 -0.024820 14.558724 -4.495918 2.203299 53.941820 -7.892892 -14.115600 51.829814 37.089817 11.747056 2.439004 -1.610859 -0.050080 0.036660 -0.073910 -0.177620 
0.572310 17.631220 0.555650 -1.434071 -2.100773 -2.762261 -15.207021 13.708626 3.112327 -4.092329 -0.095293 -6.069580 -3.563391 6.047063 19.065419 0.011419 4.124634 3.058706 0.196360 0.109240 0.297170 18.173440 -10.702078 3.164605 1.970611 3.331016 -26.494888 -0.226514 -2.790651 17.718838 0.052672 -1.876111 3.627952 0.047190 -0.139670 0.040110 -3.333336 -2.273027 -7.737535 4.786200 -3.069392 17.064611 -4.117902 -2.390590 2.516619 2.829698 0.483339 -6.205203 -1.468561 4.112654 44.001011 -1.848870 6.799470 -6.087560 -19.972666 5.636167 0.296655 -40.377311 10.433256 -10.081931 -51.477558 -29.863943 10.045095 -3.503483 3.299865 0.311030 -0.072950 0.158690 -0.028080 15.017969 -6.661964 1.831761 54.446895 -10.285167 -15.234733 51.322014 37.893686 11.807533 2.420577 -1.602491 -0.058880 0.035680 -0.067470 -0.179800 
0.567360 17.649350 0.569770 -1.758386 -2.335547 -2.553562 -15.228497 13.748141 3.108445 -4.097813 0.009269 -5.825477 -3.217483 5.800712 18.023453 -0.013499 4.017810 3.103511 0.199110 0.110760 0.298700 18.162747 -10.623752 3.184345 2.547668 3.418049 -26.466810 -0.361510 -2.709741 17.495247 0.057366 -1.836070 3.645237 0.052740 -0.135400 0.035890 -3.283739 -2.460068 -7.738423 4.908191 -3.275767 17.066705 -3.660054 -2.614680 1.825548 2.742547 0.014624 -5.518315 -2.559418 4.431729 43.976355 -2.052220 6.760830 -6.208000 -20.209215 7.513096 -0.575807 -41.337993 10.195428 -10.159727 -48.919351 -29.158378 9.194617 -3.515528 3.268642 0.312060 -0.072570 0.155060 -0.025510 15.473487 -8.353706 1.342938 54.584875 -11.595410 -15.867400 49.545890 37.512150 11.086885 2.411137 -1.572426 -0.064930 0.044500 -0.067830 -0.180200 
